<svg width="307" height="97" viewBox="0 0 307 97" fill="none" xmlns="http://www.w3.org/2000/svg">
<path d="M6.13497 62V15.8073H21.0438C24.3218 15.8073 27.0585 16.4012 29.2539 17.5891C31.4643 18.762 33.1258 20.3935 34.2385 22.4836C35.3663 24.5586 35.9302 26.942 35.9302 29.6335C35.9302 32.3251 35.3663 34.7009 34.2385 36.7609C33.1258 38.8209 31.4718 40.4299 29.2764 41.5877C27.0811 42.7455 24.3594 43.3244 21.1115 43.3244H8.41303V39.4675H20.9987C23.4046 39.4675 25.4045 39.069 26.9984 38.2721C28.6073 37.4752 29.8027 36.3399 30.5846 34.8663C31.3816 33.3927 31.78 31.6484 31.78 29.6335C31.78 27.6186 31.3816 25.8593 30.5846 24.3556C29.7877 22.8369 28.5847 21.6641 26.9758 20.8371C25.3819 20.01 23.367 19.5965 20.9311 19.5965H10.3528V62H6.13497ZM26.5022 41.1591L37.8699 62H32.998L21.7431 41.1591H26.5022Z" fill="#311400"/>
<path d="M72.6269 62V15.8073H99.4223V19.5965H76.8447V36.9865H98.0013V40.7757H76.8447V58.2108H99.8734V62H72.6269ZM91.4378 11.8376L86.0472 5.3192L80.6565 11.8376H76.7319V11.5444L84.3555 2.45471H87.7388L95.3624 11.5444V11.8376H91.4378Z" fill="#311400"/>
<path d="M136.21 15.8073L150.645 56.5191H151.051L165.486 15.8073H169.907L153.103 62H148.592L131.789 15.8073H136.21Z" fill="#311400"/>
<path d="M233.535 62V15.8073H206.739V19.5965H229.317V36.9865H208.16V40.7757H229.317V58.2108H206.288V62H233.535Z" fill="#311400"/>
<path d="M300.027 62V15.8073H285.118C281.84 15.8073 279.103 16.4012 276.908 17.5891C274.697 18.762 273.036 20.3935 271.923 22.4836C270.795 24.5586 270.232 26.942 270.232 29.6335C270.232 32.3251 270.795 34.7009 271.923 36.7609C273.036 38.8209 274.69 40.4299 276.885 41.5877C279.081 42.7455 281.802 43.3244 285.05 43.3244H297.749V39.4675H285.163C282.757 39.4675 280.757 39.069 279.163 38.2721C277.554 37.4752 276.359 36.3399 275.577 34.8663C274.78 33.3927 274.382 31.6484 274.382 29.6335C274.382 27.6186 274.78 25.8593 275.577 24.3556C276.374 22.8369 277.577 21.6641 279.186 20.8371C280.78 20.01 282.795 19.5965 285.231 19.5965H295.809V62H300.027ZM279.66 41.1591L268.292 62H273.164L284.419 41.1591H279.66Z" fill="#311400"/>
<path d="M5.63953 94.6975H1.58932V81.5728H5.81897C7.09214 81.5728 8.1816 81.8355 9.08734 82.361C9.99308 82.8823 10.6873 83.6321 11.1701 84.6104C11.6529 85.5845 11.8943 86.7509 11.8943 88.1095C11.8943 89.4767 11.6508 90.6537 11.1637 91.6406C10.6767 92.6233 9.96745 93.3795 9.03607 93.9093C8.1047 94.4348 6.97252 94.6975 5.63953 94.6975ZM3.17865 93.2876H5.537C6.62218 93.2876 7.52152 93.0783 8.235 92.6596C8.94849 92.2409 9.4804 91.6449 9.83073 90.8716C10.1811 90.0983 10.3562 89.1776 10.3562 88.1095C10.3562 87.05 10.1832 86.1378 9.83714 85.3731C9.49108 84.604 8.97412 84.0144 8.28627 83.6043C7.59842 83.1899 6.74181 82.9827 5.71644 82.9827H3.17865V93.2876ZM19.9393 81.5728V94.6975H18.35V81.5728H19.9393ZM26.48 94.6975V93.544L33.555 82.9827H26.4031V81.5728H35.452V82.7263L28.3769 93.2876H35.5289V94.6975H26.48ZM42.5229 94.6975H40.8567L45.6759 81.5728H47.3165L52.1358 94.6975H50.4695L46.5475 83.6491H46.445L42.5229 94.6975ZM43.1381 89.5707H49.8543V90.9805H43.1381V89.5707ZM62.9942 81.5728H64.5835V90.9549C64.5835 91.7923 64.4297 92.5036 64.1221 93.089C63.8145 93.6743 63.3808 94.1186 62.8211 94.4219C62.2615 94.7253 61.6014 94.8769 60.8409 94.8769C60.1231 94.8769 59.4844 94.7466 58.9247 94.486C58.3651 94.2211 57.925 93.8452 57.6046 93.3581C57.2842 92.8711 57.1239 92.2922 57.1239 91.6214H58.6876C58.6876 91.9931 58.7795 92.3178 58.9632 92.5955C59.1512 92.8689 59.4075 93.0826 59.7322 93.2364C60.0569 93.3902 60.4265 93.4671 60.8409 93.4671C61.298 93.4671 61.6868 93.3709 62.0073 93.1787C62.3277 92.9864 62.5712 92.7044 62.7378 92.3328C62.9087 91.9568 62.9942 91.4975 62.9942 90.9549V81.5728ZM81.9658 81.5728V94.6975H80.4278L73.2758 84.3925H73.1476V94.6975H71.5583V81.5728H73.0964L80.274 91.9034H80.4021V81.5728H81.9658ZM97.8012 94.6975V81.5728H102.236C103.266 81.5728 104.107 81.7586 104.761 82.1303C105.419 82.4977 105.906 82.9955 106.222 83.6235C106.538 84.2516 106.696 84.9522 106.696 85.7255C106.696 86.4988 106.538 87.2016 106.222 87.8339C105.91 88.4663 105.427 88.9704 104.774 89.3464C104.12 89.7181 103.283 89.9039 102.262 89.9039H99.0829V88.494H102.21C102.915 88.494 103.481 88.3723 103.909 88.1287C104.336 87.8852 104.646 87.5562 104.838 87.1418C105.034 86.7231 105.133 86.251 105.133 85.7255C105.133 85.2 105.034 84.7301 104.838 84.3156C104.646 83.9012 104.334 83.5765 103.902 83.3415C103.471 83.1023 102.898 82.9827 102.185 82.9827H99.3905V94.6975H97.8012ZM113.046 94.6975V81.5728H117.481C118.506 81.5728 119.348 81.7479 120.006 82.0983C120.664 82.4443 121.151 82.9207 121.467 83.5274C121.783 84.1341 121.941 84.8241 121.941 85.5974C121.941 86.3707 121.783 87.0564 121.467 87.6545C121.151 88.2526 120.666 88.7226 120.012 89.0644C119.359 89.4019 118.523 89.5707 117.507 89.5707H113.918V88.1351H117.455C118.156 88.1351 118.72 88.0326 119.147 87.8275C119.579 87.6225 119.891 87.3319 120.083 86.956C120.279 86.5757 120.378 86.1229 120.378 85.5974C120.378 85.0718 120.279 84.6126 120.083 84.2195C119.886 83.8265 119.572 83.5231 119.141 83.3095C118.709 83.0916 118.139 82.9827 117.43 82.9827H114.636V94.6975H113.046ZM119.224 88.8016L122.454 94.6975H120.608L117.43 88.8016H119.224ZM128.379 94.6975V81.5728H136.3V82.9827H129.969V87.4174H135.89V88.8273H129.969V93.2876H136.403V94.6975H128.379ZM142.237 82.9827V81.5728H152.081V82.9827H147.954V94.6975H146.364V82.9827H142.237ZM168.851 88.1351C168.851 89.5194 168.601 90.7157 168.101 91.7239C167.601 92.7322 166.916 93.5098 166.044 94.0567C165.172 94.6035 164.177 94.8769 163.058 94.8769C161.938 94.8769 160.943 94.6035 160.071 94.0567C159.2 93.5098 158.514 92.7322 158.014 91.7239C157.514 90.7157 157.264 89.5194 157.264 88.1351C157.264 86.7509 157.514 85.5546 158.014 84.5463C158.514 83.5381 159.2 82.7605 160.071 82.2136C160.943 81.6668 161.938 81.3933 163.058 81.3933C164.177 81.3933 165.172 81.6668 166.044 82.2136C166.916 82.7605 167.601 83.5381 168.101 84.5463C168.601 85.5546 168.851 86.7509 168.851 88.1351ZM167.313 88.1351C167.313 86.9987 167.123 86.0395 166.743 85.2577C166.367 84.4759 165.856 83.8841 165.211 83.4825C164.57 83.0809 163.852 82.8801 163.058 82.8801C162.263 82.8801 161.543 83.0809 160.898 83.4825C160.257 83.8841 159.747 84.4759 159.366 85.2577C158.99 86.0395 158.802 86.9987 158.802 88.1351C158.802 89.2716 158.99 90.2307 159.366 91.0126C159.747 91.7944 160.257 92.3862 160.898 92.7878C161.543 93.1894 162.263 93.3902 163.058 93.3902C163.852 93.3902 164.57 93.1894 165.211 92.7878C165.856 92.3862 166.367 91.7944 166.743 91.0126C167.123 90.2307 167.313 89.2716 167.313 88.1351ZM185.874 85.6743H184.285C184.191 85.2171 184.027 84.8155 183.792 84.4694C183.561 84.1234 183.279 83.8329 182.946 83.5979C182.617 83.3586 182.251 83.1792 181.85 83.0596C181.448 82.9399 181.03 82.8801 180.594 82.8801C179.799 82.8801 179.079 83.0809 178.434 83.4825C177.793 83.8841 177.283 84.4759 176.902 85.2577C176.526 86.0395 176.338 86.9987 176.338 88.1351C176.338 89.2716 176.526 90.2307 176.902 91.0126C177.283 91.7944 177.793 92.3862 178.434 92.7878C179.079 93.1894 179.799 93.3902 180.594 93.3902C181.03 93.3902 181.448 93.3303 181.85 93.2107C182.251 93.0911 182.617 92.9138 182.946 92.6788C183.279 92.4396 183.561 92.1469 183.792 91.8008C184.027 91.4505 184.191 91.0489 184.285 90.596H185.874C185.755 91.2668 185.537 91.8671 185.221 92.3968C184.905 92.9266 184.512 93.3773 184.042 93.749C183.572 94.1165 183.044 94.3963 182.459 94.5886C181.878 94.7808 181.256 94.8769 180.594 94.8769C179.474 94.8769 178.479 94.6035 177.607 94.0567C176.736 93.5098 176.05 92.7322 175.55 91.7239C175.05 90.7157 174.8 89.5194 174.8 88.1351C174.8 86.7509 175.05 85.5546 175.55 84.5463C176.05 83.5381 176.736 82.7605 177.607 82.2136C178.479 81.6668 179.474 81.3933 180.594 81.3933C181.256 81.3933 181.878 81.4895 182.459 81.6817C183.044 81.874 183.572 82.156 184.042 82.5277C184.512 82.8951 184.905 83.3437 185.221 83.8734C185.537 84.399 185.755 84.9992 185.874 85.6743ZM179.261 77.6251L180.594 79.4195L181.927 77.6251H183.362V77.7276L181.286 80.3936H179.902L177.825 77.7276V77.6251H179.261ZM192.232 94.6975V81.5728H200.153V82.9827H193.822V87.4174H199.743V88.8273H193.822V93.2876H200.256V94.6975H192.232ZM217.215 81.5728V94.6975H215.677L208.525 84.3925H208.397V94.6975H206.808V81.5728H208.346L215.523 91.9034H215.652V81.5728H217.215ZM241.664 81.5728H243.253V90.2628C243.253 91.16 243.042 91.9611 242.619 92.666C242.2 93.3667 241.608 93.9199 240.843 94.3258C240.079 94.7274 239.181 94.9282 238.152 94.9282C237.122 94.9282 236.225 94.7274 235.46 94.3258C234.695 93.9199 234.102 93.3667 233.679 92.666C233.26 91.9611 233.051 91.16 233.051 90.2628V81.5728H234.64V90.1346C234.64 90.7755 234.781 91.3458 235.063 91.8457C235.345 92.3413 235.746 92.7322 236.268 93.0185C236.793 93.3004 237.421 93.4414 238.152 93.4414C238.882 93.4414 239.51 93.3004 240.036 93.0185C240.561 92.7322 240.963 92.3413 241.241 91.8457C241.523 91.3458 241.664 90.7755 241.664 90.1346V81.5728ZM266.26 84.854C266.183 84.2046 265.871 83.7004 265.324 83.3415C264.777 82.9827 264.106 82.8032 263.312 82.8032C262.731 82.8032 262.222 82.8972 261.786 83.0852C261.355 83.2732 261.017 83.5317 260.774 83.8606C260.535 84.1896 260.415 84.5634 260.415 84.9821C260.415 85.3325 260.498 85.6337 260.665 85.8857C260.836 86.1335 261.054 86.3407 261.319 86.5074C261.583 86.6697 261.861 86.8043 262.152 86.9111C262.442 87.0136 262.709 87.097 262.953 87.161L264.286 87.5199C264.628 87.6096 265.008 87.7335 265.426 87.8916C265.849 88.0497 266.253 88.2654 266.638 88.5389C267.026 88.808 267.347 89.1541 267.599 89.5771C267.851 90 267.977 90.5191 267.977 91.1343C267.977 91.8436 267.791 92.4844 267.42 93.0569C267.052 93.6294 266.514 94.0844 265.805 94.4219C265.1 94.7595 264.243 94.9282 263.235 94.9282C262.295 94.9282 261.481 94.7765 260.793 94.4732C260.11 94.1699 259.571 93.7469 259.178 93.2043C258.789 92.6617 258.569 92.0315 258.518 91.3138H260.159C260.201 91.8094 260.368 92.2195 260.659 92.5442C260.953 92.8647 261.325 93.1039 261.774 93.262C262.226 93.4158 262.714 93.4927 263.235 93.4927C263.841 93.4927 264.386 93.3944 264.869 93.1979C265.352 92.9971 265.734 92.7194 266.016 92.3648C266.298 92.0059 266.439 91.5872 266.439 91.1087C266.439 90.6729 266.317 90.3183 266.074 90.0449C265.83 89.7715 265.51 89.5493 265.112 89.3784C264.715 89.2075 264.286 89.058 263.824 88.9298L262.209 88.4684C261.184 88.1736 260.372 87.7528 259.774 87.2059C259.176 86.659 258.877 85.9434 258.877 85.059C258.877 84.3242 259.076 83.6833 259.473 83.1365C259.875 82.5853 260.413 82.1581 261.088 81.8548C261.767 81.5471 262.526 81.3933 263.363 81.3933C264.209 81.3933 264.961 81.545 265.619 81.8483C266.277 82.1474 266.798 82.5576 267.182 83.0788C267.571 83.6 267.776 84.1917 267.798 84.854H266.26ZM274.918 94.6975H273.252L278.071 81.5728H279.712L284.531 94.6975H282.865L278.943 83.6491H278.84L274.918 94.6975ZM275.533 89.5707H282.25V90.9805H275.533V89.5707ZM300.773 81.5728V94.6975H299.235L292.083 84.3925H291.955V94.6975H290.365V81.5728H291.903L299.081 91.9034H299.209V81.5728H300.773Z" fill="#311400"/>
</svg>
